<svg width="199" height="50" viewBox="0 0 199 50" fill="none" xmlns="http://www.w3.org/2000/svg">
<path d="M9.75 14.2344C9.96875 13.6719 10.2188 12.6484 10.5 11.1641C10.7969 9.66406 11.0469 8.52344 11.25 7.74219C11.4688 6.94531 11.75 6.23438 12.0938 5.60938C12.8438 4.20312 13.8359 3.5 15.0703 3.5C15.8516 3.5 16.4688 3.75781 16.9219 4.27344C17.3906 4.78906 17.625 5.39063 17.625 6.07812C17.625 6.75 17.4922 7.40625 17.2266 8.04688C16.9766 8.6875 16.6484 9.33594 16.2422 9.99219C15.8359 10.6328 15.3828 11.2578 14.8828 11.8672C14.3984 12.4609 13.9219 12.9844 13.4531 13.4375C12.3906 14.4688 11.6484 14.9844 11.2266 14.9844C10.9766 14.9844 10.6875 14.8828 10.3594 14.6797C10.0312 14.4609 9.82812 14.3125 9.75 14.2344ZM4.05469 13.4609C3.58594 13.9141 3.14844 14.2812 2.74219 14.5625C2.35156 14.8438 2.08594 14.9844 1.94531 14.9844C1.80469 14.9844 1.66406 14.9609 1.52344 14.9141C1.39844 14.8672 1.26562 14.8047 1.125 14.7266C0.765625 14.5391 0.515625 14.375 0.375 14.2344C0.59375 13.6719 0.84375 12.6484 1.125 11.1641C1.42188 9.66406 1.67188 8.52344 1.875 7.74219C2.09375 6.94531 2.375 6.23438 2.71875 5.60938C3.46875 4.20312 4.46094 3.5 5.69531 3.5C6.47656 3.5 7.09375 3.75781 7.54688 4.27344C8.01562 4.78906 8.25 5.39063 8.25 6.07812C8.25 6.75 8.11719 7.40625 7.85156 8.04688C7.60156 8.6875 7.27344 9.33594 6.86719 9.99219C6.46094 10.6328 6.00781 11.2578 5.50781 11.8672C5.02344 12.4609 4.53906 12.9922 4.05469 13.4609ZM38.9766 39.0547C36.4297 40.1328 34.0859 40.6719 31.9453 40.6719C29.8203 40.6719 27.9531 40.4219 26.3438 39.9219C24.75 39.4219 23.3672 38.6719 22.1953 37.6719C19.7109 35.5781 18.4688 32.5938 18.4688 28.7188C18.4688 24.6562 19.75 20.4531 22.3125 16.1094C24.8906 11.75 28.2188 8.1875 32.2969 5.42188C36.7188 2.42188 41.2734 0.921875 45.9609 0.921875C48.8047 0.921875 51.0156 1.5625 52.5938 2.84375C54.0938 4.0625 54.8438 5.63281 54.8438 7.55469C54.8438 11.9141 52.1328 16.25 46.7109 20.5625C44.5391 22.2969 42.2422 23.7188 39.8203 24.8281C40.0078 26.1562 40.7109 28.0156 41.9297 30.4062C44.4922 29.0625 46.7656 27.2188 48.75 24.875C50.7031 22.5312 51.7578 20.3594 51.9141 18.3594C52.6016 18.3125 53.1328 18.6406 53.5078 19.3438C53.6172 19.5625 53.6719 20.0781 53.6719 20.8906C53.6719 21.6875 53.4531 22.7891 53.0156 24.1953C52.5781 25.6016 51.9688 26.9688 51.1875 28.2969C49.6406 30.9688 47.5547 33.3594 44.9297 35.4688C48.7266 41 52.1172 43.7656 55.1016 43.7656C56.0078 43.7656 56.9297 43.5547 57.8672 43.1328C58.2734 43.5859 58.4766 43.9375 58.4766 44.1875C58.4766 44.4375 58.375 44.7109 58.1719 45.0078C57.9688 45.3047 57.5938 45.7188 57.0469 46.25C56.5 46.7812 55.8594 47.2734 55.125 47.7266C53.375 48.7891 51.5625 49.3203 49.6875 49.3203C45.1406 49.3203 41.5703 45.8984 38.9766 39.0547ZM37.0078 32.0703C36.3047 28.7734 35.9531 26.0859 35.9531 24.0078C40.0938 22.3516 43.6328 20.0781 46.5703 17.1875C49.6641 14.1406 51.2109 11.1094 51.2109 8.09375C51.2109 5.96875 50.1719 4.54688 48.0938 3.82812C47.4219 3.60938 46.4531 3.5 45.1875 3.5C43.9219 3.5 42.5078 3.75781 40.9453 4.27344C39.3984 4.77344 37.9609 5.48438 36.6328 6.40625C35.3047 7.32812 34.1016 8.4375 33.0234 9.73438C31.9609 11.0312 31.0469 12.4609 30.2812 14.0234C28.7188 17.2578 27.9375 20.7891 27.9375 24.6172C27.9375 27.1484 28.6172 29.0391 29.9766 30.2891C31.3516 31.5391 33.2578 32.1641 35.6953 32.1641C36.1328 32.1641 36.5703 32.1328 37.0078 32.0703ZM77.7188 27.7578C77.7188 29.6328 78.3828 30.5703 79.7109 30.5703C80.8672 30.5703 82.1562 30.0469 83.5781 29C84.8438 28.0469 85.9531 26.8594 86.9062 25.4375C87.6094 25.3906 87.9609 25.6797 87.9609 26.3047C87.9609 26.8359 87.6328 27.6484 86.9766 28.7422C86.3359 29.8359 85.7109 30.7812 85.1016 31.5781C84.4922 32.375 83.8125 33.1562 83.0625 33.9219C82.3125 34.6875 81.5156 35.375 80.6719 35.9844C78.7812 37.3281 76.9375 38 75.1406 38C72.4219 38 70.6094 37.0312 69.7031 35.0938C67.9844 36.375 66.1719 37.2578 64.2656 37.7422C63.6094 37.9141 62.875 38 62.0625 38C61.2656 38 60.4688 37.8594 59.6719 37.5781C58.8906 37.2812 58.2188 36.8594 57.6562 36.3125C56.5 35.1875 55.9219 33.6406 55.9219 31.6719C55.9219 29.4688 56.6719 27.1562 58.1719 24.7344C59.4219 22.7188 61.0156 20.9375 62.9531 19.3906C64.7344 17.9844 66.1719 17.2812 67.2656 17.2812C67.8594 17.2812 68.5312 17.75 69.2812 18.6875C67.75 19.7656 66.4297 21.1406 65.3203 22.8125C64.0859 24.6719 63.4688 26.3516 63.4688 27.8516C63.4688 29.6641 64.2266 30.5703 65.7422 30.5703C67.2422 30.5703 68.4219 30.3125 69.2812 29.7969C69.8906 27.3594 71.2578 24.8438 73.3828 22.25C75.4922 19.6719 77.4219 18.0547 79.1719 17.3984C79.7344 17.1953 80.5 17.4609 81.4688 18.1953C81.7031 18.3672 81.8828 18.5156 82.0078 18.6406C80.6797 19.7812 79.6016 21.3281 78.7734 23.2812C78.0703 24.9375 77.7188 26.4297 77.7188 27.7578ZM91.4766 38.1172L91.0078 38.1406C88.5391 38.1406 86.6562 37.5312 85.3594 36.3125C84.1406 35.1719 83.5312 33.625 83.5312 31.6719C83.5312 28.9844 84.6016 26.4141 86.7422 23.9609C88.8203 21.5859 91.3438 19.9219 94.3125 18.9688C94.2188 18.2656 94.4766 17.6875 95.0859 17.2344C95.5234 16.9062 96.2422 16.7422 97.2422 16.7422C98.2578 16.7422 99.2344 16.8359 100.172 17.0234C101.109 17.2109 102.055 17.625 103.008 18.2656C105.07 19.625 106.102 21.4531 106.102 23.75C106.102 26.2344 105.484 28.5938 104.25 30.8281C106.938 30.25 109.289 28.4531 111.305 25.4375C112.008 25.3906 112.359 25.6797 112.359 26.3047C112.359 26.5547 112.281 26.8594 112.125 27.2188C110 32.2656 105.75 35.6094 99.375 37.25C97.0938 37.8438 94.5 38.1406 91.5938 38.1406L91.4766 38.1172ZM91.0781 27.8516C91.0781 29.6641 91.8359 30.5703 93.3516 30.5703C94.6328 30.5703 95.9219 29.7969 97.2188 28.25C98.5781 26.6406 99.2578 25.0078 99.2578 23.3516C99.2578 21.6641 98.4453 20.5469 96.8203 20C94.0234 20.7812 92.2344 22.5312 91.4531 25.25C91.2031 26.0781 91.0781 26.9453 91.0781 27.8516ZM116.297 38.0234C111.312 38.0234 108.82 35.9062 108.82 31.6719C108.82 28.7188 110.781 24.625 114.703 19.3906C114.312 19.2656 113.953 19.1562 113.625 19.0625C113.297 18.9688 113.031 18.8906 112.828 18.8281C112.625 18.75 112.5 18.6328 112.453 18.4766C112.406 18.3203 112.391 18.1406 112.406 17.9375C112.469 17.4688 112.578 17.0938 112.734 16.8125L116.273 17.3984C119.039 14.0391 121.422 11.7344 123.422 10.4844C124.031 10.1094 124.461 9.92188 124.711 9.92188C124.961 9.92188 125.18 9.96094 125.367 10.0391C125.57 10.1016 125.773 10.1875 125.977 10.2969C126.414 10.5312 126.758 10.8047 127.008 11.1172C124.898 13.1797 122.922 15.5469 121.078 18.2188C124.656 18.8438 126.844 19.1797 127.641 19.2266C127.219 20.8984 126.734 21.7344 126.188 21.7344C124.844 21.7344 122.633 21.3672 119.555 20.6328C118.008 23.2109 117.234 25.3516 117.234 27.0547C117.234 29.3984 118.812 30.5703 121.969 30.5703C125.5 30.5703 128.406 28.8594 130.688 25.4375C131.391 25.3906 131.742 25.6797 131.742 26.3047C131.742 26.8516 131.414 27.6719 130.758 28.7656C130.102 29.8438 129.445 30.7812 128.789 31.5781C128.133 32.375 127.375 33.1641 126.516 33.9453C125.656 34.7109 124.703 35.3984 123.656 36.0078C121.375 37.3516 118.922 38.0234 116.297 38.0234ZM136.617 28.7891C137.523 30.4141 139.578 31.2266 142.781 31.2266C144.781 31.2266 146.664 30.7422 148.43 29.7734C150.211 28.7891 151.734 27.3438 153 25.4375C153.703 25.3906 154.055 25.6797 154.055 26.3047C154.055 27.0078 153.633 28.0234 152.789 29.3516C151.961 30.6641 151.18 31.7266 150.445 32.5391C149.727 33.3516 148.914 34.1094 148.008 34.8125C147.117 35.5 146.156 36.0938 145.125 36.5938C142.891 37.6875 140.539 38.2344 138.07 38.2344C133.102 38.2344 129.875 36.8594 128.391 34.1094C127.859 33.1094 127.594 31.9688 127.594 30.6875C127.594 29.3906 127.812 28.2031 128.25 27.125C128.703 26.0469 129.32 25.0234 130.102 24.0547C130.883 23.0703 131.812 22.1641 132.891 21.3359C133.969 20.5078 135.141 19.7969 136.406 19.2031C139.094 17.9062 141.836 17.2578 144.633 17.2578C146.648 17.2578 148.031 17.8906 148.781 19.1562C149.047 19.5938 149.18 20.1797 149.18 20.9141C149.18 21.6328 148.992 22.3438 148.617 23.0469C148.258 23.75 147.766 24.3906 147.141 24.9688C146.516 25.5312 145.789 26.0312 144.961 26.4688C144.133 26.8906 143.25 27.2578 142.312 27.5703C140.656 28.1328 138.758 28.5391 136.617 28.7891ZM136.289 26.6094C138.289 26.375 140.008 25.8203 141.445 24.9453C142.961 24.0078 143.719 22.9141 143.719 21.6641C143.719 20.3984 143.141 19.7656 141.984 19.7656C140.484 19.7656 139.18 20.4844 138.07 21.9219C137.008 23.2969 136.414 24.8594 136.289 26.6094ZM169.898 18.6406C169.039 18.5781 168.203 18.5938 167.391 18.6875C167.391 18.8438 167.391 19.1172 167.391 19.5078C167.391 19.8984 167.445 20.4844 167.555 21.2656C167.664 22.0469 167.797 22.9062 167.953 23.8438C168.391 26.5 168.609 28.2969 168.609 29.2344C168.609 30.1719 168.547 30.9375 168.422 31.5312C170.781 30.9375 172.945 29.5781 174.914 27.4531C175.508 26.8125 176.039 26.1406 176.508 25.4375C176.961 25.4062 177.25 25.4922 177.375 25.6953C177.5 25.8828 177.562 26.0859 177.562 26.3047C177.562 26.5234 177.383 27.0547 177.023 27.8984C176.664 28.7422 175.977 29.8047 174.961 31.0859C173.961 32.3672 172.711 33.5234 171.211 34.5547C167.82 36.8828 163.742 38.0625 158.977 38.0938C158.539 38.125 157.906 38.1406 157.078 38.1406C156.25 38.1406 155.336 37.9141 154.336 37.4609C153.336 36.9922 152.484 36.3594 151.781 35.5625C150.328 33.9219 149.602 31.8203 149.602 29.2578C149.602 28.1953 150.406 27 152.016 25.6719C152.469 25.2969 152.922 24.9688 153.375 24.6875C154.938 22.3438 157.156 20.3125 160.031 18.5938C162.922 16.875 165.625 16.0156 168.141 16.0156C169.047 16.0156 169.672 16.2656 170.016 16.7656C170.391 17.2969 170.352 17.9219 169.898 18.6406ZM158.109 29.5391C158.453 29.8047 158.836 29.9375 159.258 29.9375C159.68 29.9375 160.094 29.7734 160.5 29.4453C160.906 29.1172 161.273 28.6797 161.602 28.1328C161.945 27.5859 162.242 26.9531 162.492 26.2344C162.758 25.5156 162.992 24.7656 163.195 23.9844C163.539 22.6719 163.883 21.1172 164.227 19.3203C161.586 20.1328 159.25 21.4219 157.219 23.1875C156.609 23.7344 156.078 24.2891 155.625 24.8516C156.172 27.1016 157 28.6641 158.109 29.5391ZM191.016 14.2344C191.234 13.6719 191.484 12.6484 191.766 11.1641C192.062 9.66406 192.312 8.52344 192.516 7.74219C192.734 6.94531 193.016 6.23438 193.359 5.60938C194.109 4.20312 195.102 3.5 196.336 3.5C197.117 3.5 197.734 3.75781 198.188 4.27344C198.656 4.78906 198.891 5.39063 198.891 6.07812C198.891 6.75 198.758 7.40625 198.492 8.04688C198.242 8.6875 197.914 9.33594 197.508 9.99219C197.102 10.6328 196.648 11.2578 196.148 11.8672C195.664 12.4609 195.188 12.9844 194.719 13.4375C193.656 14.4688 192.914 14.9844 192.492 14.9844C192.242 14.9844 191.953 14.8828 191.625 14.6797C191.297 14.4609 191.094 14.3125 191.016 14.2344ZM185.32 13.4609C184.852 13.9141 184.414 14.2812 184.008 14.5625C183.617 14.8438 183.352 14.9844 183.211 14.9844C183.07 14.9844 182.93 14.9609 182.789 14.9141C182.664 14.8672 182.531 14.8047 182.391 14.7266C182.031 14.5391 181.781 14.375 181.641 14.2344C181.859 13.6719 182.109 12.6484 182.391 11.1641C182.688 9.66406 182.938 8.52344 183.141 7.74219C183.359 6.94531 183.641 6.23438 183.984 5.60938C184.734 4.20312 185.727 3.5 186.961 3.5C187.742 3.5 188.359 3.75781 188.812 4.27344C189.281 4.78906 189.516 5.39063 189.516 6.07812C189.516 6.75 189.383 7.40625 189.117 8.04688C188.867 8.6875 188.539 9.33594 188.133 9.99219C187.727 10.6328 187.273 11.2578 186.773 11.8672C186.289 12.4609 185.805 12.9922 185.32 13.4609Z" fill="black"/>
</svg>
